<svg className="current" width="current" height="current" fill="currentColor" viewBox="0 0 24 25" xmlns="http://www.w3.org/2000/svg">
<path d="M12 6.99304C15.79 6.99304 19.17 9.12304 20.82 12.493C19.17 15.863 15.79 17.993 12 17.993C8.21 17.993 4.83 15.863 3.18 12.493C4.83 9.12304 8.21 6.99304 12 6.99304ZM12 4.99304C7 4.99304 2.73 8.10304 1 12.493C2.73 16.883 7 19.993 12 19.993C17 19.993 21.27 16.883 23 12.493C21.27 8.10304 17 4.99304 12 4.99304ZM12 9.99304C13.38 9.99304 14.5 11.113 14.5 12.493C14.5 13.873 13.38 14.993 12 14.993C10.62 14.993 9.5 13.873 9.5 12.493C9.5 11.113 10.62 9.99304 12 9.99304ZM12 7.99304C9.52 7.99304 7.5 10.013 7.5 12.493C7.5 14.973 9.52 16.993 12 16.993C14.48 16.993 16.5 14.973 16.5 12.493C16.5 10.013 14.48 7.99304 12 7.99304Z" />
</svg>
