<svg width="140" height="32" viewBox="0 0 140 32" fill="none" xmlns="http://www.w3.org/2000/svg">
<path d="M22.3869 15.0853C22.9067 15.6392 23.2249 16.3844 23.2249 17.2039V28.3102C23.2248 30.0204 21.8385 31.4068 20.1282 31.4068H9.02383C8.18526 31.4068 7.4247 31.0733 6.86706 30.5319L0.842204 24.5074C0.61027 24.2612 0.418227 23.977 0.2764 23.6652C0.0988988 23.2749 1.29571e-05 22.8412 0 22.3845V15.9236L7.26805 23.1916C7.54974 23.4836 7.94507 23.6652 8.38273 23.6652H13.9349C14.79 23.6652 15.4832 22.9719 15.4832 22.1169V9.73026C15.4832 8.8752 14.79 8.18193 13.9349 8.18193H7.74162V0.440308L22.3869 15.0853Z" fill="#191B24"/>
<path d="M139.87 5.36175H130.063L130.063 31.4839H124.902L124.902 5.36175H115.095V0.516113L139.87 0.516113V5.36175Z" fill="#191B24"/>
<path fill-rule="evenodd" clip-rule="evenodd" d="M101.266 0C105.087 0 108.473 1.18611 110.941 3.30406C113.408 5.42219 115.023 8.50699 115.608 12.3686L115.611 12.3871H110.631C110.137 9.9307 109.089 8.08688 107.681 6.82082C106.082 5.38325 103.855 4.56792 101.434 4.56792C98.2859 4.56792 95.7219 5.58386 93.9417 7.47637C93.8954 7.52565 93.8494 7.57555 93.804 7.62609C93.7782 7.65471 93.7527 7.68354 93.7275 7.71258C93.0763 8.45773 92.5303 9.33821 92.1075 10.3531C91.4557 11.917 91.0968 13.8003 91.0968 16C91.0968 16.1426 91.0983 16.2838 91.1014 16.4236C91.1059 16.6295 91.1135 16.8323 91.1242 17.0323C91.2077 18.589 91.4825 19.964 91.9165 21.1613C92.4139 22.5339 93.1211 23.6728 93.9911 24.5832C95.7819 26.4572 98.3268 27.4321 101.35 27.4321C104.131 27.4321 106.19 26.5743 107.962 25.1067C109.181 24.0981 110.153 22.7705 110.826 21.1613L114.441 24.7762C113.467 26.5106 112.242 27.9401 110.776 29.0562C108.204 31.0145 105.217 32 101.393 32C96.4426 32 92.6176 30.4176 90.036 27.5861C88.4527 25.8497 87.3626 23.6719 86.7581 21.1613C86.4466 19.8683 86.2647 18.487 86.2098 17.0323L86.2037 16.8505L86.1982 16.6424C86.1942 16.4575 86.1921 16.2714 86.1921 16.0842C86.1921 10.7617 87.8334 6.72436 90.5787 4.01751C93.3207 1.31401 97.1018 0 101.266 0Z" fill="#191B24"/>
<path fill-rule="evenodd" clip-rule="evenodd" d="M61.4667 21.1613C61.0333 19.964 60.7597 18.5888 60.6759 17.0323H73.0958H76.2455H78.6969H79.2894H85.0388C85.0388 17.0323 85.3706 15.1126 84.9541 12.369C84.3297 8.25032 82.753 5.42257 80.2859 3.30444C77.8185 1.18655 74.6356 6.23149e-05 70.8151 0C66.6507 0 62.869 1.31357 60.1265 4.01714C57.3811 6.72398 55.7405 10.7622 55.7405 16.0847C55.7405 16.4039 55.7466 16.7198 55.7581 17.0323C55.813 18.487 55.9955 19.8683 56.307 21.1613C56.9113 23.6716 58.001 25.8493 59.5843 27.5857C62.166 30.4172 65.991 32 70.9411 32C74.7651 32 77.7526 31.0147 80.3252 29.0565C81.7915 27.9403 83.0155 26.5108 83.9893 24.7763L80.3746 21.1613C79.7017 22.7705 78.729 24.0982 77.5107 25.1069C75.738 26.5744 73.679 27.4325 70.8987 27.4325C67.8751 27.4324 65.3307 26.4573 63.5398 24.5837C62.67 23.6731 61.9637 22.5341 61.4667 21.1613ZM80.0692 12.9032C79.6246 10.1874 78.5303 8.17389 77.0258 6.82057C75.4275 5.38325 73.4038 4.5676 70.9834 4.56754C67.8347 4.56754 65.2707 5.5843 63.4904 7.47682C62.2324 8.81464 61.3353 10.6251 60.9148 12.9032H80.0692Z" fill="#191B24"/>
<path fill-rule="evenodd" clip-rule="evenodd" d="M53.9822 21.1613C53.5906 24.1428 52.6784 26.5547 51.1713 28.3478C49.1083 30.802 46.069 32 42.2217 32C38.9279 32 35.8355 30.8939 33.7428 28.6968C32.5306 27.4241 31.5921 25.8054 30.9666 23.864L35.647 21.1613C36.0165 22.8977 36.6253 24.2411 37.4096 25.2205C38.5679 26.6671 40.3906 27.3747 42.3215 27.3548C44.3563 27.3343 45.8296 26.7526 47.0302 25.393C47.8624 24.4505 48.4994 23.0857 48.817 21.1613C48.9621 20.2822 49.0312 19.1903 49.0312 18.0645V17.0322V0.516113H54.1924V17.0322V17.7424C54.1924 18.9536 54.1223 20.0939 53.9822 21.1613Z" fill="#191B24"/>
</svg>
