<svg className="current" width="current" height="current" fill="currentColor" viewBox="0 0 24 25" xmlns="http://www.w3.org/2000/svg">
<path d="M12 6.46304C15.79 6.46304 19.17 8.59304 20.82 11.963C20.23 13.183 19.4 14.233 18.41 15.083L19.82 16.493C21.21 15.263 22.31 13.723 23 11.963C21.27 7.57304 17 4.46304 12 4.46304C10.73 4.46304 9.51 4.66304 8.36 5.03304L10.01 6.68304C10.66 6.55304 11.32 6.46304 12 6.46304ZM10.93 7.60304L13 9.67304C13.57 9.92304 14.03 10.383 14.28 10.953L16.35 13.023C16.43 12.683 16.49 12.323 16.49 11.953C16.5 9.47304 14.48 7.46304 12 7.46304C11.63 7.46304 11.28 7.51304 10.93 7.60304ZM2.01 4.33304L4.69 7.01304C3.06 8.29304 1.77 9.99304 1 11.963C2.73 16.353 7 19.463 12 19.463C13.52 19.463 14.98 19.173 16.32 18.643L19.74 22.063L21.15 20.653L3.42 2.91304L2.01 4.33304ZM9.51 11.833L12.12 14.443C12.08 14.453 12.04 14.463 12 14.463C10.62 14.463 9.5 13.343 9.5 11.963C9.5 11.913 9.51 11.883 9.51 11.833ZM6.11 8.43304L7.86 10.183C7.63 10.733 7.5 11.333 7.5 11.963C7.5 14.443 9.52 16.463 12 16.463C12.63 16.463 13.23 16.333 13.77 16.103L14.75 17.083C13.87 17.323 12.95 17.463 12 17.463C8.21 17.463 4.83 15.333 3.18 11.963C3.88 10.533 4.9 9.35304 6.11 8.43304Z"/>
</svg>
