<svg className="current" height="current" fill="currentColor" viewBox="0 0 112 32" xmlns="http://www.w3.org/2000/svg">
<path d="M111.101 5.36737H100.961V31.3268H95.9727V5.36737H85.8329V0.673155H111.101V5.36737Z" />
<path d="M81.1916 13.3423L81.2777 14.0085L86.0828 12.8351L86.0003 12.2915C85.4145 8.42985 83.7999 5.34502 81.3325 3.22688C78.8653 1.10896 75.5948 0 71.7742 0C67.6098 0 63.8285 1.31394 61.0862 4.01751C58.3406 6.72436 56.6998 10.7617 56.6998 16.0841C56.6998 20.7735 57.9695 24.763 60.5434 27.586C63.1251 30.4175 66.9501 32 71.9004 32C75.7245 32 78.9851 31.0481 81.5575 29.0898C84.1304 27.1311 85.9596 24.2075 86.9961 20.3639L87.1401 19.83L82.4769 18.1446L82.3353 18.8222C81.7701 21.5274 80.5173 23.6718 78.7433 25.1403C76.9704 26.6079 74.6388 27.432 71.8583 27.432C68.8345 27.432 66.2896 26.4573 64.4987 24.5832C62.7061 22.7074 61.6044 19.8624 61.6044 16C61.6044 12.2188 62.6658 9.37274 64.4494 7.47641C66.2295 5.58387 68.7937 4.56799 71.9425 4.56799C74.363 4.56799 76.4741 5.30612 78.0725 6.74366C79.671 8.18137 80.8066 10.3638 81.1916 13.3423Z" />
<path fill-rule="evenodd" clip-rule="evenodd" d="M32.6934 24.4373C31.0515 22.6663 30.0482 20.1663 29.844 17.148H54.9544L54.9736 16.5668C55.1453 11.371 53.859 7.21514 51.2742 4.35298C48.6841 1.48495 44.8661 0 40.152 0C35.7181 0 31.8952 1.5352 29.1812 4.33198C26.4679 7.12794 24.9093 11.1365 24.9093 16C24.9093 20.8635 26.4679 24.8721 29.1812 27.668C31.8952 30.4648 35.7181 32 40.152 32C43.2469 32 46.384 31.297 49.0361 29.6134C51.6981 27.9233 53.8377 25.2657 54.9502 21.4265L55.0954 20.9252L50.6211 18.9118L50.4293 19.5784C49.5802 22.5303 48.0896 24.4784 46.2988 25.6952C44.5007 26.9169 42.354 27.432 40.152 27.432C36.9554 27.432 34.4397 26.3209 32.6934 24.4373ZM49.9479 12.58H30.1566C30.6907 10.2354 31.7857 8.31209 33.3391 6.94217C35.0424 5.44015 37.3365 4.56799 40.152 4.56799C43.5392 4.56799 45.8673 5.57815 47.4107 7.12148C48.8195 8.53037 49.6287 10.4381 49.9479 12.58Z" />
<path d="M16.3015 25.5314C17.476 24.2013 18.2493 22.0033 18.2494 18.5251V18.5243L18.2059 0.630968H23.154V18.1877C23.154 22.6384 22.1821 26.1027 20.1994 28.4617C18.2012 30.8392 15.2566 31.9999 11.5297 31.9999C8.33859 31.9999 5.57491 30.9283 3.5475 28.7998C1.52668 26.6783 0.291713 23.5643 0.0328133 19.573L0 19.0671L4.89713 17.8984L4.93529 18.6187C5.09982 21.7241 5.85777 23.941 6.99736 25.3642C8.11942 26.7656 9.6529 27.4512 11.5236 27.4319C13.4949 27.412 15.1385 26.8485 16.3015 25.5314Z" />
</svg>
