<svg width="24" height="25" viewBox="0 0 24 25" fill="none" xmlns="http://www.w3.org/2000/svg">
<path d="M4 19.1138C4 19.4887 4.00021 19.6767 4.0957 19.8081C4.12649 19.8505 4.16371 19.8877 4.20605 19.9185C4.33749 20.0139 4.52542 20.0142 4.90039 20.0142H7V22.0142H5.59961C4.09998 22.0142 3.3499 22.0143 2.82422 21.6323C2.65449 21.509 2.50517 21.3597 2.38184 21.1899C1.9999 20.6643 2 19.9142 2 18.4146V17.0142H4V19.1138Z" fill="#191B24"/>
<path d="M22 18.4146C22 19.9142 22.0001 20.6643 21.6182 21.1899C21.4948 21.3597 21.3455 21.509 21.1758 21.6323C20.6501 22.0143 19.9 22.0142 18.4004 22.0142H17V20.0142H19.0996C19.4746 20.0142 19.6625 20.0139 19.7939 19.9185C19.8363 19.8877 19.8735 19.8505 19.9043 19.8081C19.9998 19.6767 20 19.4887 20 19.1138V17.0142H22V18.4146Z" fill="#191B24"/>
<path fill-rule="evenodd" clip-rule="evenodd" d="M9 7.01416H15V5.01416H17V7.01416H19V9.01416H17V15.0142H19V17.0142H17V19.0142H15V17.0142H9V19.0142H7V17.0142H5V15.0142H7V9.01416H5V7.01416H7V5.01416H9V7.01416ZM9 15.0142H15V9.01416H9V15.0142Z" fill="#191B24"/>
<path d="M7 4.01416H4.90039C4.52542 4.01416 4.33749 4.01437 4.20605 4.10986C4.16371 4.14065 4.12649 4.17787 4.0957 4.22021C4.00021 4.35165 4 4.53958 4 4.91455V7.01416H2V5.61377C2 4.11414 1.9999 3.36406 2.38184 2.83838C2.50517 2.66865 2.65449 2.51933 2.82422 2.396C3.3499 2.01406 4.09998 2.01416 5.59961 2.01416H7V4.01416Z" fill="#191B24"/>
<path d="M18.4004 2.01416C19.9 2.01416 20.6501 2.01406 21.1758 2.396C21.3455 2.51933 21.4948 2.66865 21.6182 2.83838C22.0001 3.36406 22 4.11414 22 5.61377V7.01416H20V4.91455C20 4.53958 19.9998 4.35165 19.9043 4.22021C19.8735 4.17787 19.8363 4.14065 19.7939 4.10986C19.6625 4.01437 19.4746 4.01416 19.0996 4.01416H17V2.01416H18.4004Z" fill="#191B24"/>
</svg>
