<svg width="24" height="24" viewBox="0 0 24 24" fill="none" xmlns="http://www.w3.org/2000/svg">
<path d="M12 2.0072C17.5228 2.0072 22 6.48435 22 12.0072C22 17.53 17.5228 22.0072 12 22.0072C6.47715 22.0072 2 17.53 2 12.0072C2 6.48435 6.47715 2.0072 12 2.0072ZM12.1597 16.0072C10.1243 16.0072 8.29182 16.8759 7.01276 18.2628C8.38039 19.3546 10.114 20.0072 12 20.0072C13.9695 20.0072 15.7727 19.2955 17.1666 18.1153C15.8956 16.8146 14.1219 16.0072 12.1597 16.0072ZM12 4.0072C7.58172 4.0072 4 7.58892 4 12.0072C4 13.8178 4.6015 15.4879 5.61557 16.8286C7.25639 15.0913 9.58144 14.0072 12.1597 14.0072C14.6441 14.0072 16.8933 15.0138 18.5218 16.6414C19.4526 15.3339 20 13.7345 20 12.0072C20 7.58892 16.4183 4.0072 12 4.0072ZM12 5.0072C14.2091 5.0072 16 6.79806 16 9.0072C16 11.2163 14.2091 13.0072 12 13.0072C9.79086 13.0072 8 11.2163 8 9.0072C8 6.79806 9.79086 5.0072 12 5.0072ZM12 7.0072C10.8954 7.0072 10 7.90263 10 9.0072C10 10.1118 10.8954 11.0072 12 11.0072C13.1046 11.0072 14 10.1118 14 9.0072C14 7.90263 13.1046 7.0072 12 7.0072Z" fill="#191B24"/>
</svg>
