<svg width="24" height="24" viewBox="0 0 24 24" fill="none" xmlns="http://www.w3.org/2000/svg">
<path d="M20 12.0072C20 7.58892 16.4183 4.0072 12 4.0072C7.58172 4.0072 4 7.58892 4 12.0072C4 16.4255 7.58172 20.0072 12 20.0072C13.6418 20.0072 15.1681 19.5126 16.4381 18.6643L17.5476 20.3286C15.9602 21.389 14.0523 22.0072 12 22.0072C6.47715 22.0072 2 17.53 2 12.0072C2 6.48435 6.47715 2.0072 12 2.0072C17.5228 2.0072 22 6.48435 22 12.0072V13.5072C22 15.4402 20.433 17.0072 18.5 17.0072C17.2958 17.0072 16.2336 16.399 15.6038 15.4731C14.6942 16.4187 13.4158 17.0072 12 17.0072C9.23858 17.0072 7 14.7686 7 12.0072C7 9.24578 9.23858 7.0072 12 7.0072C13.1258 7.0072 14.1647 7.37929 15.0005 8.0072H17V13.5072C17 14.3356 17.6716 15.0072 18.5 15.0072C19.3284 15.0072 20 14.3356 20 13.5072V12.0072ZM12 9.0072C10.3431 9.0072 9 10.3503 9 12.0072C9 13.6641 10.3431 15.0072 12 15.0072C13.6569 15.0072 15 13.6641 15 12.0072C15 10.3503 13.6569 9.0072 12 9.0072Z" fill="#191B24"/>
</svg>
