<svg width="24" height="24" viewBox="0 0 24 24" fill="none" xmlns="http://www.w3.org/2000/svg">
<path d="M14 13.5072V8.0072C14 5.79806 12.2091 4.0072 10 4.0072C7.79086 4.0072 6 5.79806 6 8.0072V13.5072C6 17.0971 8.91015 20.0072 12.5 20.0072C16.0899 20.0072 19 17.0971 19 13.5072V4.0072H21V13.5072C21 18.2016 17.1944 22.0072 12.5 22.0072C7.80558 22.0072 4 18.2016 4 13.5072V8.0072C4 4.69349 6.68629 2.0072 10 2.0072C13.3137 2.0072 16 4.69349 16 8.0072V13.5072C16 15.4402 14.433 17.0072 12.5 17.0072C10.567 17.0072 9 15.4402 9 13.5072V8.0072H11V13.5072C11 14.3356 11.6716 15.0072 12.5 15.0072C13.3284 15.0072 14 14.3356 14 13.5072Z" fill="#191B24"/>
</svg>
