<svg width="25" height="24" viewBox="0 0 25 24" fill="none" xmlns="http://www.w3.org/2000/svg">
<path d="M9.19238 1.0072V3.0072H15.1924V1.0072H17.1924V3.0072H21.1924C21.7447 3.0072 22.1924 3.45492 22.1924 4.0072V20.0072C22.1924 20.5595 21.7447 21.0072 21.1924 21.0072H3.19238C2.6401 21.0072 2.19238 20.5595 2.19238 20.0072V4.0072C2.19238 3.45492 2.6401 3.0072 3.19238 3.0072H7.19238V1.0072H9.19238ZM20.1924 11.0072H4.19238V19.0072H20.1924V11.0072ZM8.19238 13.0072V15.0072H6.19238V13.0072H8.19238ZM13.1924 13.0072V15.0072H11.1924V13.0072H13.1924ZM18.1924 13.0072V15.0072H16.1924V13.0072H18.1924ZM7.19238 5.0072H4.19238V9.0072H20.1924V5.0072H17.1924V7.0072H15.1924V5.0072H9.19238V7.0072H7.19238V5.0072Z" fill="#191B24"/>
</svg>
