<svg width="24" height="24" viewBox="0 0 24 24" fill="none" xmlns="http://www.w3.org/2000/svg">
<path d="M7.29117 20.8314L2.767 21.8368C2.40975 21.9161 2.09106 21.5975 2.17044 21.2402L3.17581 16.716C2.42544 15.3128 2 13.7097 2 12.0072C2 6.48435 6.47715 2.0072 12 2.0072C17.5228 2.0072 22 6.48435 22 12.0072C22 17.53 17.5228 22.0072 12 22.0072C10.2975 22.0072 8.6944 21.5818 7.29117 20.8314ZM7.58075 18.7182L8.23428 19.0677C9.38248 19.6817 10.6655 20.0072 12 20.0072C16.4183 20.0072 20 16.4255 20 12.0072C20 7.58892 16.4183 4.0072 12 4.0072C7.58172 4.0072 4 7.58892 4 12.0072C4 13.3417 4.32549 14.6247 4.93949 15.7729L5.28896 16.4264L4.63416 19.373L7.58075 18.7182Z" fill="#191B24"/>
</svg>
