<svg width="24" height="24" viewBox="0 0 24 24" fill="none" xmlns="http://www.w3.org/2000/svg">
<path d="M21 12C21 7.02944 16.9706 3 12 3C7.02944 3 3 7.02944 3 12C3 16.9706 7.02944 21 12 21C16.9706 21 21 16.9706 21 12ZM12.0098 16C12.5621 16 13.0098 16.4477 13.0098 17C13.0098 17.5523 12.5621 18 12.0098 18H12C11.4477 18 11 17.5523 11 17C11 16.4477 11.4477 16 12 16H12.0098ZM9.89355 6.54688C10.7079 6.06836 11.6657 5.89305 12.5967 6.05273C13.5276 6.2125 14.3722 6.69736 14.9805 7.41992C15.5883 8.14215 15.921 9.05607 15.9199 10L15.9072 10.2812C15.7794 11.6555 14.7343 12.5756 13.9746 13.082C13.539 13.3724 13.1106 13.5863 12.7949 13.7266C12.6359 13.7973 12.5019 13.8509 12.4053 13.8877C12.357 13.9061 12.3176 13.9205 12.2891 13.9307C12.2748 13.9357 12.2627 13.9394 12.2539 13.9424C12.2496 13.9438 12.2461 13.9453 12.2432 13.9463L12.2393 13.9473L12.2373 13.9482C11.7135 14.1229 11.1465 13.8401 10.9717 13.3164C10.7971 12.7926 11.0798 12.2265 11.6035 12.0518L11.6182 12.0459C11.6335 12.0404 11.6597 12.0314 11.6934 12.0186C11.7608 11.9929 11.8607 11.9525 11.9824 11.8984C12.2292 11.7887 12.5509 11.6275 12.8652 11.418C13.5548 10.9582 13.9199 10.4691 13.9199 10V9.99805C13.9205 9.52588 13.7543 9.06826 13.4502 8.70703C13.146 8.34579 12.7233 8.10425 12.2578 8.02441C11.7924 7.94464 11.3134 8.03221 10.9062 8.27148C10.4992 8.51081 10.1899 8.88661 10.0332 9.33203C9.84984 9.85287 9.27872 10.1266 8.75781 9.94336C8.23699 9.75999 7.96324 9.18887 8.14648 8.66797C8.45997 7.7769 9.07918 7.02549 9.89355 6.54688ZM23 12C23 18.0751 18.0751 23 12 23C5.92487 23 1 18.0751 1 12C1 5.92487 5.92487 1 12 1C18.0751 1 23 5.92487 23 12Z" fill="#1B1C21"/>
</svg>
