<svg width="24" height="24" viewBox="0 0 24 24" fill="none" xmlns="http://www.w3.org/2000/svg">
<path d="M17 7.0072C13.5705 7.0072 10.6449 9.16524 9.50734 12.1975L11.3805 12.8999C12.2337 10.6257 14.4278 9.0072 17 9.0072C17.6983 9.0072 18.3687 9.12648 18.992 9.34577C21.3265 10.1672 23 12.3918 23 15.0072C23 18.3209 20.3137 21.0072 17 21.0072H7C3.68629 21.0072 1 18.3209 1 15.0072C1 12.3918 2.67346 10.1672 5.00804 9.34577C5.0027 9.23359 5 9.12071 5 9.0072C5 5.14121 8.13401 2.0072 12 2.0072C15.242 2.0072 17.9693 4.21119 18.7652 7.20259C18.1973 7.0747 17.6065 7.0072 17 7.0072Z" fill="#191B24"/>
</svg>
