<svg width="24" height="24" viewBox="0 0 24 24" fill="none" xmlns="http://www.w3.org/2000/svg">
<path d="M12 2.0072C15.866 2.0072 19 5.14121 19 9.0072C19 9.12071 18.9973 9.23359 18.992 9.34577C21.3265 10.1672 23 12.3918 23 15.0072C23 18.3209 20.3137 21.0072 17 21.0072H7C3.68629 21.0072 1 18.3209 1 15.0072C1 12.3918 2.67346 10.1672 5.00804 9.34577C5.0027 9.23359 5 9.12071 5 9.0072C5 5.14121 8.13401 2.0072 12 2.0072ZM12 4.0072C9.23858 4.0072 7 6.24578 7 9.0072C7 9.08867 7.00193 9.16983 7.00578 9.25064L7.07662 10.7381L5.67183 11.2324C4.0844 11.7909 3 13.2961 3 15.0072C3 17.2163 4.79086 19.0072 7 19.0072H17C19.2091 19.0072 21 17.2163 21 15.0072C21 12.7972 19.21 11.0072 17 11.0072C15.233 11.0072 13.7337 12.1529 13.2042 13.7419L11.3064 13.1093C12.1005 10.7257 14.35 9.0072 17 9.0072C17 6.24578 14.7614 4.0072 12 4.0072Z" fill="#191B24"/>
</svg>
