<svg width="24" height="24" viewBox="0 0 24 24" fill="none" xmlns="http://www.w3.org/2000/svg">
<path d="M12 4.0072C18.0751 4.0072 23 6.69349 23 10.0072V14.0072C23 17.3209 18.0751 20.0072 12 20.0072C6.03336 20.0072 1.17626 17.416 1.00469 14.1841L1 14.0072V10.0072C1 6.69349 5.92487 4.0072 12 4.0072ZM12 16.0072C8.27955 16.0072 4.99049 14.9997 2.99978 13.4577L3 14.0072C3 15.8894 6.88263 18.0072 12 18.0072C17.0107 18.0072 20.8377 15.9767 20.995 14.1251L21 14.0072L21.0012 13.4569C19.0106 14.9994 15.7211 16.0072 12 16.0072ZM12 6.0072C6.88263 6.0072 3 8.125 3 10.0072C3 11.8894 6.88263 14.0072 12 14.0072C17.1174 14.0072 21 11.8894 21 10.0072C21 8.125 17.1174 6.0072 12 6.0072Z" fill="#191B24"/>
</svg>
