<svg width="24" height="25" viewBox="0 0 24 25" fill="none" xmlns="http://www.w3.org/2000/svg">
<path fill-rule="evenodd" clip-rule="evenodd" d="M12.0778 12.9361C12.2385 12.9616 12.3717 13.0941 12.6373 13.3596L15.6119 16.3343C15.8775 16.5999 16.01 16.7331 16.0355 16.8938C16.0437 16.9457 16.0437 16.9985 16.0355 17.0503C16.01 17.2109 15.8773 17.3435 15.6119 17.6089L12.6373 20.5845C12.3718 20.8499 12.2385 20.9826 12.0778 21.008C12.026 21.0162 11.973 21.0162 11.9213 21.008C11.7607 20.9825 11.628 20.8497 11.3627 20.5845L8.38808 17.6089C8.12252 17.3433 7.98902 17.211 7.96355 17.0503C7.95534 16.9985 7.95537 16.9456 7.96355 16.8938C7.98901 16.7331 8.12249 16.5999 8.38808 16.3343L11.3627 13.3596C11.628 13.0943 11.7607 12.9616 11.9213 12.9361C11.9731 12.9279 12.026 12.9279 12.0778 12.9361ZM10.5831 16.9721L11.9995 18.3885L13.4159 16.9721L11.9995 15.5557L10.5831 16.9721Z" fill="#191B24"/>
<path fill-rule="evenodd" clip-rule="evenodd" d="M7.12036 7.97771C7.28094 8.0032 7.41368 8.13604 7.6789 8.40126L10.6545 11.3769C10.9197 11.6421 11.0526 11.7748 11.0781 11.9354C11.0863 11.9872 11.0862 12.0401 11.0781 12.0919C11.0526 12.2526 10.92 12.386 10.6545 12.6514L7.6789 15.6261C7.41354 15.8914 7.28096 16.0241 7.12036 16.0496C7.06855 16.0578 7.01567 16.0578 6.96385 16.0496C6.80313 16.0242 6.66992 15.8917 6.40433 15.6261L3.42969 12.6514C3.16411 12.3859 3.0316 12.2527 3.00614 12.0919C2.99797 12.0401 2.99794 11.9872 3.00614 11.9354C3.03168 11.7748 3.16434 11.6422 3.42969 11.3769L6.40433 8.40126C6.66978 8.13581 6.80317 8.00316 6.96385 7.97771C7.01564 7.96955 7.06857 7.96951 7.12036 7.97771ZM5.6257 12.0137L7.04211 13.4301L8.45851 12.0137L7.04211 10.5973L5.6257 12.0137Z" fill="#191B24"/>
<path fill-rule="evenodd" clip-rule="evenodd" d="M17.0362 7.97771C17.1968 8.00318 17.3295 8.13602 17.5947 8.40126L20.5703 11.3769C20.8356 11.6421 20.9684 11.7748 20.9939 11.9354C21.0021 11.9872 21.002 12.0401 20.9939 12.0919C20.9684 12.2526 20.8358 12.386 20.5703 12.6514L17.5947 15.6261C17.3293 15.8915 17.1968 16.0241 17.0362 16.0496C16.9843 16.0578 16.9315 16.0578 16.8796 16.0496C16.7189 16.0242 16.5857 15.8917 16.3201 15.6261L13.3455 12.6514C13.0799 12.3859 12.9474 12.2527 12.9219 12.0919C12.9138 12.0401 12.9137 11.9872 12.9219 11.9354C12.9475 11.7748 13.0802 11.6422 13.3455 11.3769L16.3201 8.40126C16.5856 8.13579 16.719 8.00316 16.8796 7.97771C16.9315 7.96954 16.9843 7.9695 17.0362 7.97771ZM15.5415 12.0137L16.9579 13.4301L18.3743 12.0137L16.9579 10.5973L15.5415 12.0137Z" fill="#191B24"/>
<path fill-rule="evenodd" clip-rule="evenodd" d="M12.0778 3.0203C12.2385 3.04576 12.3717 3.17827 12.6373 3.44385L15.6119 6.41849C15.8775 6.68408 16.01 6.81729 16.0355 6.97801C16.0437 7.02983 16.0437 7.08271 16.0355 7.13452C16.0099 7.29511 15.8773 7.4277 15.6119 7.69306L12.6373 10.6687C12.3718 10.9341 12.2384 11.0668 12.0778 11.0922C12.026 11.1004 11.973 11.1004 11.9213 11.0922C11.7607 11.0667 11.6279 10.9339 11.3627 10.6687L8.38808 7.69306C8.12257 7.42755 7.98906 7.29519 7.96355 7.13452C7.95535 7.08274 7.95539 7.0298 7.96355 6.97801C7.98901 6.81729 8.12249 6.68408 8.38808 6.41849L11.3627 3.44385C11.6281 3.17851 11.7607 3.04585 11.9213 3.0203C11.9731 3.0121 12.026 3.01213 12.0778 3.0203ZM10.5831 7.05626L11.9995 8.47267L13.4159 7.05626L11.9995 5.63986L10.5831 7.05626Z" fill="#191B24"/>
</svg>
