<svg width="24" height="24" viewBox="0 0 24 24" fill="none" xmlns="http://www.w3.org/2000/svg">
<path d="M8.5 7.0072C9.32843 7.0072 10 6.33563 10 5.5072C10 4.67877 9.32843 4.0072 8.5 4.0072C7.67157 4.0072 7 4.67877 7 5.5072C7 6.33563 7.67157 7.0072 8.5 7.0072ZM8.5 13.5072C9.32843 13.5072 10 12.8356 10 12.0072C10 11.1788 9.32843 10.5072 8.5 10.5072C7.67157 10.5072 7 11.1788 7 12.0072C7 12.8356 7.67157 13.5072 8.5 13.5072ZM10 18.5072C10 19.3356 9.32843 20.0072 8.5 20.0072C7.67157 20.0072 7 19.3356 7 18.5072C7 17.6788 7.67157 17.0072 8.5 17.0072C9.32843 17.0072 10 17.6788 10 18.5072ZM15.5 7.0072C16.3284 7.0072 17 6.33563 17 5.5072C17 4.67877 16.3284 4.0072 15.5 4.0072C14.6716 4.0072 14 4.67877 14 5.5072C14 6.33563 14.6716 7.0072 15.5 7.0072ZM17 12.0072C17 12.8356 16.3284 13.5072 15.5 13.5072C14.6716 13.5072 14 12.8356 14 12.0072C14 11.1788 14.6716 10.5072 15.5 10.5072C16.3284 10.5072 17 11.1788 17 12.0072ZM15.5 20.0072C16.3284 20.0072 17 19.3356 17 18.5072C17 17.6788 16.3284 17.0072 15.5 17.0072C14.6716 17.0072 14 17.6788 14 18.5072C14 19.3356 14.6716 20.0072 15.5 20.0072Z" fill="#191B24"/>
</svg>
