<svg width="24" height="24" viewBox="0 0 24 24" fill="none" xmlns="http://www.w3.org/2000/svg">
<path d="M22 4.0072C22 3.45492 21.5523 3.0072 21 3.0072H3C2.44772 3.0072 2 3.45492 2 4.0072V20.0072C2 20.5595 2.44772 21.0072 3 21.0072H21C21.5523 21.0072 22 20.5595 22 20.0072V4.0072ZM4 15.0072H7.41604C8.1876 16.7731 9.94968 18.0072 12 18.0072C14.0503 18.0072 15.8124 16.7731 16.584 15.0072H20V19.0072H4V15.0072ZM4 5.0072H20V13.0072H15.5C15.2239 13.0072 15.0044 13.2327 14.9589 13.5051C14.7217 14.925 13.4873 16.0072 12 16.0072C10.5127 16.0072 9.27829 14.925 9.04113 13.5051C8.99563 13.2327 8.77614 13.0072 8.5 13.0072H4V5.0072ZM16 11.0072H13V14.0072H11V11.0072H8L12 6.5072L16 11.0072Z" fill="#191B24"/>
</svg>
