<svg width="24" height="24" viewBox="0 0 24 24" fill="none" xmlns="http://www.w3.org/2000/svg">
<path d="M12.0001 3.0072C17.3922 3.0072 21.8782 6.88696 22.8187 12.0072C21.8782 17.1274 17.3922 21.0072 12.0001 21.0072C6.60788 21.0072 2.12191 17.1274 1.1814 12.0072C2.12191 6.88696 6.60788 3.0072 12.0001 3.0072ZM12.0001 19.0072C16.2357 19.0072 19.8601 16.0592 20.7775 12.0072C19.8601 7.95523 16.2357 5.0072 12.0001 5.0072C7.76436 5.0072 4.13998 7.95523 3.22254 12.0072C4.13998 16.0592 7.76436 19.0072 12.0001 19.0072ZM12.0001 16.5072C9.51474 16.5072 7.50002 14.4925 7.50002 12.0072C7.50002 9.52192 9.51474 7.5072 12.0001 7.5072C14.4853 7.5072 16.5001 9.52192 16.5001 12.0072C16.5001 14.4925 14.4853 16.5072 12.0001 16.5072ZM12.0001 14.5072C13.3808 14.5072 14.5001 13.3879 14.5001 12.0072C14.5001 10.6265 13.3808 9.5072 12.0001 9.5072C10.6194 9.5072 9.50002 10.6265 9.50002 12.0072C9.50002 13.3879 10.6194 14.5072 12.0001 14.5072Z" fill="#191B24"/>
</svg>
