<svg width="24" height="24" viewBox="0 0 24 24" fill="none" xmlns="http://www.w3.org/2000/svg">
<path d="M17.8825 19.3039C16.1812 20.3826 14.1636 21.0073 12.0001 21.0073C6.60788 21.0073 2.12191 17.1275 1.1814 12.0073C1.61808 9.62991 2.81908 7.51998 4.52023 5.94165L1.39342 2.81485L2.80764 1.40063L22.6067 21.1996L21.1925 22.6139L17.8825 19.3039ZM5.93536 7.35678C4.60649 8.56723 3.63756 10.1743 3.22254 12.0073C4.13998 16.0592 7.76436 19.0073 12.0001 19.0073C13.5995 19.0073 15.1118 18.5869 16.4241 17.8455L14.3958 15.8172C13.7021 16.2543 12.8806 16.5073 12.0001 16.5073C9.51474 16.5073 7.50002 14.4925 7.50002 12.0073C7.50002 11.1267 7.75293 10.3052 8.19007 9.6115L5.93536 7.35678ZM12.9137 14.3351L9.67222 11.0937C9.56106 11.3767 9.50002 11.6848 9.50002 12.0073C9.50002 13.388 10.6194 14.5073 12.0001 14.5073C12.3225 14.5073 12.6307 14.4462 12.9137 14.3351ZM20.8066 16.5996L19.3758 15.1688C20.0317 14.2339 20.5152 13.1657 20.7775 12.0073C19.8601 7.95527 16.2357 5.00725 12.0001 5.00725C11.1542 5.00725 10.3327 5.12481 9.55225 5.34526L7.97422 3.76723C9.22103 3.27667 10.5791 3.00724 12.0001 3.00724C17.3922 3.00724 21.8782 6.88701 22.8187 12.0073C22.5065 13.7069 21.8036 15.2699 20.8066 16.5996ZM11.7227 7.51566C11.8144 7.51008 11.9069 7.50725 12.0001 7.50725C14.4853 7.50725 16.5001 9.52197 16.5001 12.0073C16.5001 12.1004 16.4972 12.1929 16.4917 12.2846L11.7227 7.51566Z" fill="#191B24"/>
</svg>
