<svg width="24" height="24" viewBox="0 0 24 24" fill="none" xmlns="http://www.w3.org/2000/svg">
<path d="M5 6.0072C5 3.79806 6.79086 2.0072 9 2.0072H15C17.2091 2.0072 19 3.79806 19 6.0072C19 7.20189 18.4762 8.27426 17.6458 9.0072C18.4762 9.74015 19 10.8125 19 12.0072C19 14.2163 17.2091 16.0072 15 16.0072C14.2714 16.0072 13.5883 15.8124 13 15.4721V18.0072C13 20.2163 11.2091 22.0072 9 22.0072C6.79086 22.0072 5 20.2163 5 18.0072C5 16.8125 5.52376 15.7401 6.35418 15.0072C5.52376 14.2743 5 13.2019 5 12.0072C5 10.8125 5.52376 9.74015 6.35418 9.0072C5.52376 8.27426 5 7.20189 5 6.0072ZM11 10.0072H9C7.89543 10.0072 7 10.9026 7 12.0072C7 13.1118 7.89543 14.0072 9 14.0072H11V10.0072ZM13 12.0072C13 13.1118 13.8954 14.0072 15 14.0072C16.1046 14.0072 17 13.1118 17 12.0072C17 10.9026 16.1046 10.0072 15 10.0072C13.8954 10.0072 13 10.9026 13 12.0072ZM15 8.0072C16.1046 8.0072 17 7.11177 17 6.0072C17 4.90263 16.1046 4.0072 15 4.0072H13V8.0072H15ZM9 4.0072C7.89543 4.0072 7 4.90263 7 6.0072C7 7.11177 7.89543 8.0072 9 8.0072H11V4.0072H9ZM11 16.0072H9C7.89543 16.0072 7 16.9026 7 18.0072C7 19.1118 7.89543 20.0072 9 20.0072C10.1046 20.0072 11 19.1118 11 18.0072V16.0072Z" fill="#191B24"/>
</svg>
