<svg width="24" height="24" viewBox="0 0 24 24" fill="none" xmlns="http://www.w3.org/2000/svg">
<path d="M11 15.0072H13V17.0072H11V15.0072ZM13 13.3623V14.0072H11V12.5072C11 11.9549 11.4477 11.5072 12 11.5072C12.8284 11.5072 13.5 10.8356 13.5 10.0072C13.5 9.17877 12.8284 8.5072 12 8.5072C11.2723 8.5072 10.6656 9.02543 10.5288 9.71297L8.56731 9.32066C8.88637 7.71639 10.302 6.5072 12 6.5072C13.933 6.5072 15.5 8.0742 15.5 10.0072C15.5 11.5927 14.4457 12.932 13 13.3623ZM15 4.0072H5V20.0072H19V8.0072H15V4.0072ZM3 2.999C3 2.45125 3.44749 2.0072 3.9985 2.0072H16L20.9997 7.0072L21 20.9997C21 21.5561 20.5551 22.0072 20.0066 22.0072H3.9934C3.44476 22.0072 3 21.5519 3 21.0154V2.999Z" fill="#191B24"/>
</svg>
