<svg width="24" height="24" viewBox="0 0 24 24" fill="none" xmlns="http://www.w3.org/2000/svg">
<path d="M6 21.5098C4.067 21.5098 2.5 19.9428 2.5 18.0098C2.5 16.0768 4.067 14.5098 6 14.5098C7.5852 14.5098 8.92427 15.5637 9.35481 17.009L15 17.0092V15.0098L17 15.0092V9.25321L14.757 7.0092H9V9.00985H3V3.00985H9V5.00921H14.757L18 1.76721L22.2426 6.00985L19 9.25121V15.0092L21 15.0098V21.0098H15V19.0092L9.35499 19.0101C8.92464 20.4557 7.58543 21.5098 6 21.5098ZM6 16.5098C5.17157 16.5098 4.5 17.1814 4.5 18.0098C4.5 18.8383 5.17157 19.5098 6 19.5098C6.82843 19.5098 7.5 18.8383 7.5 18.0098C7.5 17.1814 6.82843 16.5098 6 16.5098ZM19 17.0098H17V19.0098H19V17.0098ZM18 4.59563L16.5858 6.00985L18 7.42406L19.4142 6.00985L18 4.59563ZM7 5.00985H5V7.00985H7V5.00985Z" fill="#191B24"/>
</svg>
