<svg width="78" height="24" viewBox="0 0 78 24" fill="none" xmlns="http://www.w3.org/2000/svg">
<path d="M15.1935 11.5426C15.4534 11.8196 15.6124 12.1922 15.6124 12.6019V18.155C15.6124 19.0101 14.9192 19.7034 14.0641 19.7034H8.51192C8.09263 19.7034 7.71235 19.5366 7.43353 19.2659L4.4211 16.2537C4.30514 16.1306 4.20911 15.9885 4.1382 15.8326C4.04945 15.6374 4.00001 15.4206 4 15.1922V11.9617L7.63403 15.5958C7.77487 15.7417 7.97253 15.8326 8.19136 15.8326H10.9675C11.395 15.8326 11.7416 15.4859 11.7416 15.0584V8.8651C11.7416 8.43757 11.395 8.09094 10.9675 8.09094H7.87081V4.22012L15.1935 11.5426Z" fill="#9C9DA8"/>
<path d="M73.9349 6.68088H69.0317L69.0317 19.7419H66.4511L66.4511 6.68088H61.5479V4.25806L73.9349 4.25806V6.68088Z" fill="#9C9DA8"/>
<path fill-rule="evenodd" clip-rule="evenodd" d="M54.6331 4C56.5434 4 58.2367 4.59306 59.4703 5.65203C60.7042 6.7111 61.5114 8.2535 61.8042 10.1843L61.8057 10.1935H59.3153C59.0686 8.96535 58.5445 8.04344 57.8405 7.41041C57.0411 6.69163 55.9277 6.28396 54.7172 6.28396C53.143 6.28396 51.861 6.79193 50.9708 7.73819C50.9477 7.76283 50.9247 7.78777 50.902 7.81305C50.8891 7.82736 50.8764 7.84177 50.8637 7.85629C50.5381 8.22886 50.2651 8.6691 50.0538 9.17657C49.7279 9.95851 49.5484 10.9001 49.5484 12C49.5484 12.0713 49.5492 12.1419 49.5507 12.2118C49.553 12.3147 49.5568 12.4162 49.5621 12.5161C49.6039 13.2945 49.7413 13.982 49.9582 14.5806C50.2069 15.2669 50.5605 15.8364 50.9955 16.2916C51.891 17.2286 53.1634 17.716 54.6752 17.716C56.0656 17.716 57.0949 17.2871 57.9812 16.5534C58.5905 16.049 59.0767 15.3852 59.4131 14.5806L61.2204 16.3881C60.7334 17.2553 60.1211 17.97 59.3881 18.5281C58.1021 19.5072 56.6084 20 54.6964 20C52.2213 20 50.3088 19.2088 49.018 17.7931C48.2263 16.9248 47.6813 15.8359 47.379 14.5806C47.2233 13.9341 47.1323 13.2435 47.1049 12.5161L47.1019 12.4252L47.0991 12.3212C47.0971 12.2287 47.0961 12.1357 47.0961 12.0421C47.0961 9.38086 47.9167 7.36218 49.2894 6.00876C50.6603 4.65701 52.5509 4 54.6331 4Z" fill="#9C9DA8"/>
<path fill-rule="evenodd" clip-rule="evenodd" d="M34.7335 14.5806C34.5168 13.982 34.38 13.2944 34.3381 12.5161H40.548H42.1229H43.3486H43.6448H46.5195C46.5195 12.5161 46.6854 11.5563 46.4772 10.1845C46.165 8.12516 45.3766 6.71128 44.1431 5.65222C42.9094 4.59328 41.3179 4.00003 39.4077 4C37.3255 4 35.4346 4.65679 34.0634 6.00857C32.6907 7.36199 31.8704 9.38111 31.8704 12.0423C31.8704 12.2019 31.8734 12.3599 31.8792 12.5161C31.9066 13.2435 31.9979 13.9341 32.1536 14.5806C32.4558 15.8358 33.0006 16.9246 33.7923 17.7928C35.0831 19.2086 36.9956 20 39.4706 20C41.3827 20 42.8764 19.5074 44.1627 18.5282C44.8959 17.9702 45.5079 17.2554 45.9948 16.3881L44.1874 14.5806C43.851 15.3853 43.3646 16.0491 42.7555 16.5534C41.8691 17.2872 40.8396 17.7162 39.4495 17.7162C37.9377 17.7162 36.6655 17.2287 35.77 16.2918C35.3351 15.8366 34.982 15.267 34.7335 14.5806ZM44.0347 10.4516C43.8124 9.09372 43.2653 8.08695 42.513 7.41028C41.7139 6.69163 40.702 6.2838 39.4918 6.28377C37.9175 6.28377 36.6354 6.79215 35.7453 7.73841C35.1163 8.40732 34.6678 9.31256 34.4575 10.4516H44.0347Z" fill="#9C9DA8"/>
<path fill-rule="evenodd" clip-rule="evenodd" d="M30.9911 14.5806C30.7953 16.0714 30.3392 17.2773 29.5857 18.1739C28.5542 19.401 27.0345 20 25.1109 20C23.4639 20 21.9178 19.447 20.8714 18.3484C20.2653 17.7121 19.796 16.9027 19.4833 15.932L21.8235 14.5806C22.0082 15.4489 22.3127 16.1206 22.7048 16.6102C23.2839 17.3336 24.1953 17.6874 25.1608 17.6774C26.1781 17.6671 26.9148 17.3763 27.5151 16.6965C27.9312 16.2252 28.2497 15.5429 28.4085 14.5806C28.4811 14.1411 28.5156 13.5951 28.5156 13.0322V12.5161V4.25806H31.0962V12.5161V12.8712C31.0962 13.4768 31.0612 14.047 30.9911 14.5806Z" fill="#9C9DA8"/>
</svg>
