<svg width="24" height="24" viewBox="0 0 24 24" fill="none" xmlns="http://www.w3.org/2000/svg">
<path d="M3 4.0072C3 3.45492 3.44772 3.0072 4 3.0072H10C10.5523 3.0072 11 3.45492 11 4.0072V10.0072C11 10.5595 10.5523 11.0072 10 11.0072H4C3.44772 11.0072 3 10.5595 3 10.0072V4.0072ZM3 14.0072C3 13.4549 3.44772 13.0072 4 13.0072H10C10.5523 13.0072 11 13.4549 11 14.0072V20.0072C11 20.5595 10.5523 21.0072 10 21.0072H4C3.44772 21.0072 3 20.5595 3 20.0072V14.0072ZM13 4.0072C13 3.45492 13.4477 3.0072 14 3.0072H20C20.5523 3.0072 21 3.45492 21 4.0072V10.0072C21 10.5595 20.5523 11.0072 20 11.0072H14C13.4477 11.0072 13 10.5595 13 10.0072V4.0072ZM13 14.0072C13 13.4549 13.4477 13.0072 14 13.0072H20C20.5523 13.0072 21 13.4549 21 14.0072V20.0072C21 20.5595 20.5523 21.0072 20 21.0072H14C13.4477 21.0072 13 20.5595 13 20.0072V14.0072ZM15 5.0072V9.0072H19V5.0072H15ZM15 15.0072V19.0072H19V15.0072H15ZM5 5.0072V9.0072H9V5.0072H5ZM5 15.0072V19.0072H9V15.0072H5Z" fill="#191B24"/>
</svg>
