<svg width="24" height="24" viewBox="0 0 24 24" fill="none" xmlns="http://www.w3.org/2000/svg">
<path d="M12 2.0072C6.475 2.0072 2 6.4822 2 12.0072C2 16.4322 4.8625 20.1697 8.8375 21.4947C9.3375 21.5822 9.525 21.2822 9.525 21.0197C9.525 20.7822 9.5125 19.9947 9.5125 19.1572C7 19.6197 6.35 18.5447 6.15 17.9822C6.0375 17.6947 5.55 16.8072 5.125 16.5697C4.775 16.3822 4.275 15.9197 5.1125 15.9072C5.9 15.8947 6.4625 16.6322 6.65 16.9322C7.55 18.4447 8.9875 18.0197 9.5625 17.7572C9.65 17.1072 9.9125 16.6697 10.2 16.4197C7.975 16.1697 5.65 15.3072 5.65 11.4822C5.65 10.3947 6.0375 9.4947 6.675 8.7947C6.575 8.5447 6.225 7.5197 6.775 6.1447C6.775 6.1447 7.6125 5.8822 9.525 7.1697C10.325 6.9447 11.175 6.8322 12.025 6.8322C12.875 6.8322 13.725 6.9447 14.525 7.1697C16.4375 5.8697 17.275 6.1447 17.275 6.1447C17.825 7.5197 17.475 8.5447 17.375 8.7947C18.0125 9.4947 18.4 10.3822 18.4 11.4822C18.4 15.3197 16.0625 16.1697 13.8375 16.4197C14.2 16.7322 14.5125 17.3322 14.5125 18.2697C14.5125 19.6072 14.5 20.6822 14.5 21.0197C14.5 21.2822 14.6875 21.5947 15.1875 21.4947C19.258 20.1205 21.9989 16.3035 22 12.0072C22 6.4822 17.525 2.0072 12 2.0072Z" fill="#191B24"/>
</svg>
