<svg width="24" height="24" viewBox="0 0 24 24" fill="none" xmlns="http://www.w3.org/2000/svg">
<path d="M12 22.0072C6.47715 22.0072 2 17.53 2 12.0072C2 6.48435 6.47715 2.0072 12 2.0072C17.5228 2.0072 22 6.48435 22 12.0072C22 17.53 17.5228 22.0072 12 22.0072ZM9.71002 19.6746C8.74743 17.6331 8.15732 15.3814 8.02731 13.0072H4.06189C4.458 16.1837 6.71639 18.7819 9.71002 19.6746ZM10.0307 13.0072C10.1811 15.446 10.8778 17.7369 12 19.7592C13.1222 17.7369 13.8189 15.446 13.9693 13.0072H10.0307ZM19.9381 13.0072H15.9727C15.8427 15.3814 15.2526 17.6331 14.29 19.6746C17.2836 18.7819 19.542 16.1837 19.9381 13.0072ZM4.06189 11.0072H8.02731C8.15732 8.63297 8.74743 6.38127 9.71002 4.33976C6.71639 5.23253 4.458 7.8307 4.06189 11.0072ZM10.0307 11.0072H13.9693C13.8189 8.56842 13.1222 6.27745 12 4.25519C10.8778 6.27745 10.1811 8.56842 10.0307 11.0072ZM14.29 4.33976C15.2526 6.38127 15.8427 8.63297 15.9727 11.0072H19.9381C19.542 7.8307 17.2836 5.23253 14.29 4.33976Z" fill="#191B24"/>
</svg>
