<svg width="24" height="24" viewBox="0 0 24 24" fill="none" xmlns="http://www.w3.org/2000/svg">
<path d="M13 8.0072V16.0072C13 17.6641 11.6569 19.0072 10 19.0072H7.82929C7.41746 20.1724 6.30622 21.0072 5 21.0072C3.34315 21.0072 2 19.6641 2 18.0072C2 16.3503 3.34315 15.0072 5 15.0072C6.30622 15.0072 7.41746 15.842 7.82929 17.0072H10C10.5523 17.0072 11 16.5595 11 16.0072V8.0072C11 6.35035 12.3431 5.0072 14 5.0072H17V2.0072L22 6.0072L17 10.0072V7.0072H14C13.4477 7.0072 13 7.45492 13 8.0072ZM5 19.0072C5.55228 19.0072 6 18.5595 6 18.0072C6 17.4549 5.55228 17.0072 5 17.0072C4.44772 17.0072 4 17.4549 4 18.0072C4 18.5595 4.44772 19.0072 5 19.0072Z" fill="#191B24"/>
</svg>
