<svg width="24" height="24" viewBox="0 0 24 24" fill="none" xmlns="http://www.w3.org/2000/svg">
<path d="M16.5 3.0072C19.5376 3.0072 22 5.5072 22 9.0072C22 16.0072 14.5 20.0072 12 21.5072C9.5 20.0072 2 16.0072 2 9.0072C2 5.5072 4.5 3.0072 7.5 3.0072C9.35997 3.0072 11 4.0072 12 5.0072C13 4.0072 14.64 3.0072 16.5 3.0072ZM12.9339 18.611C13.8155 18.0557 14.61 17.5027 15.3549 16.9101C18.3337 14.5402 20 11.9507 20 9.0072C20 6.64796 18.463 5.0072 16.5 5.0072C15.4241 5.0072 14.2593 5.57631 13.4142 6.42141L12 7.83563L10.5858 6.42141C9.74068 5.57631 8.5759 5.0072 7.5 5.0072C5.55906 5.0072 4 6.6637 4 9.0072C4 11.9507 5.66627 14.5402 8.64514 16.9101C9.39 17.5027 10.1845 18.0557 11.0661 18.611C11.3646 18.7991 11.6611 18.9801 12 19.1824C12.3389 18.9801 12.6354 18.7991 12.9339 18.611Z" fill="#191B24"/>
</svg>
