<svg width="24" height="24" viewBox="0 0 24 24" fill="none" xmlns="http://www.w3.org/2000/svg">
<path d="M2.9918 21.0072C2.44405 21.0072 2 20.5623 2 20.0138V4.0006C2 3.45196 2.45531 3.0072 2.9918 3.0072H21.0082C21.556 3.0072 22 3.45215 22 4.0006V20.0138C22 20.5624 21.5447 21.0072 21.0082 21.0072H2.9918ZM20 15.0072V5.0072H4V19.0072L14 9.0072L20 15.0072ZM20 17.8356L14 11.8356L6.82843 19.0072H20V17.8356ZM8 11.0072C6.89543 11.0072 6 10.1118 6 9.0072C6 7.90263 6.89543 7.0072 8 7.0072C9.10457 7.0072 10 7.90263 10 9.0072C10 10.1118 9.10457 11.0072 8 11.0072Z" fill="#191B24"/>
</svg>
