<svg width="24" height="24" viewBox="0 0 24 24" fill="none" xmlns="http://www.w3.org/2000/svg">
<path d="M12 22.0072C6.47715 22.0072 2 17.53 2 12.0072C2 6.48435 6.47715 2.0072 12 2.0072C17.5228 2.0072 22 6.48435 22 12.0072C22 17.53 17.5228 22.0072 12 22.0072ZM12 20.0072C16.4183 20.0072 20 16.4255 20 12.0072C20 7.58892 16.4183 4.0072 12 4.0072C7.58172 4.0072 4 7.58892 4 12.0072C4 16.4255 7.58172 20.0072 12 20.0072ZM11 7.0072H13V9.0072H11V7.0072ZM11 11.0072H13V17.0072H11V11.0072Z" fill="#191B24"/>
</svg>
