<svg width="24" height="24" viewBox="0 0 24 24" fill="none" xmlns="http://www.w3.org/2000/svg">
<path d="M12 9.0072C10.3426 9.0072 9 10.3503 9 12.0072C9 13.6645 10.3431 15.0072 12 15.0072C13.6573 15.0072 15 13.6641 15 12.0072C15 10.3499 13.6569 9.0072 12 9.0072ZM12 7.0072C14.7604 7.0072 17 9.2443 17 12.0072C17 14.7677 14.7629 17.0072 12 17.0072C9.23953 17.0072 7 14.7701 7 12.0072C7 9.24673 9.2371 7.0072 12 7.0072ZM18.5 6.75635C18.5 7.44646 17.9392 8.00637 17.25 8.00637C16.5599 8.00637 16 7.4456 16 6.75635C16 6.0671 16.5607 5.5072 17.25 5.5072C17.9383 5.50633 18.5 6.0671 18.5 6.75635ZM12 4.0072C9.52552 4.0072 9.1222 4.01375 7.97129 4.065C7.18717 4.10181 6.66155 4.20727 6.17318 4.39687C5.73918 4.56519 5.42611 4.76618 5.09254 5.09975C4.75769 5.4346 4.55706 5.74683 4.38942 6.18103C4.19938 6.67052 4.09395 7.19531 4.0578 7.97835C4.00605 9.0824 4 9.46825 4 12.0072C4 14.4817 4.00655 14.885 4.05779 16.0358C4.09462 16.8196 4.20022 17.346 4.38936 17.8332C4.55812 18.2678 4.75952 18.5816 5.09148 18.9136C5.42765 19.2493 5.74081 19.4506 6.17089 19.6166C6.66521 19.8077 7.1905 19.9133 7.97114 19.9494C9.0752 20.0011 9.46105 20.0072 12 20.0072C14.4745 20.0072 14.8778 20.0006 16.0286 19.9494C16.8107 19.9127 17.3375 19.8068 17.826 19.6178C18.2594 19.4495 18.5742 19.2474 18.9064 18.9157C19.2426 18.579 19.4435 18.2666 19.6097 17.8355C19.8003 17.343 19.9061 16.817 19.9422 16.0361C19.9939 14.932 20 14.5461 20 12.0072C20 9.53272 19.9934 9.12941 19.9422 7.97857C19.9054 7.19626 19.7995 6.66869 19.6103 6.18038C19.4424 5.74758 19.2407 5.43355 18.9074 5.09975C18.572 4.76435 18.2606 4.56413 17.8261 4.39662C17.337 4.20674 16.8114 4.10116 16.0288 4.06501C14.9248 4.01325 14.5389 4.0072 12 4.0072ZM12 2.0072C14.7166 2.0072 15.0558 2.0172 16.1225 2.0672C17.1866 2.11637 17.9125 2.2847 18.55 2.5322C19.2091 2.78637 19.7658 3.1297 20.3216 3.68553C20.8766 4.24137 21.22 4.7997 21.475 5.4572C21.7216 6.09387 21.89 6.82053 21.94 7.8847C21.9875 8.95137 22 9.29053 22 12.0072C22 14.7239 21.99 15.063 21.94 16.1297C21.8908 17.1939 21.7216 17.9197 21.475 18.5572C21.2208 19.2164 20.8766 19.773 20.3216 20.3289C19.7658 20.8839 19.2066 21.2272 18.55 21.4822C17.9125 21.7289 17.1866 21.8972 16.1225 21.9472C15.0558 21.9947 14.7166 22.0072 12 22.0072C9.28333 22.0072 8.94416 21.9972 7.8775 21.9472C6.81333 21.898 6.08833 21.7289 5.45 21.4822C4.79166 21.228 4.23416 20.8839 3.67833 20.3289C3.1225 19.773 2.78 19.2139 2.525 18.5572C2.2775 17.9197 2.11 17.1939 2.06 16.1297C2.0125 15.063 2 14.7239 2 12.0072C2 9.29053 2.01 8.95137 2.06 7.8847C2.10916 6.8197 2.2775 6.0947 2.525 5.4572C2.77916 4.79887 3.1225 4.24137 3.67833 3.68553C4.23416 3.1297 4.7925 2.7872 5.45 2.5322C6.0875 2.2847 6.8125 2.1172 7.8775 2.0672C8.94416 2.0197 9.28333 2.0072 12 2.0072Z" fill="#191B24"/>
</svg>
