<svg width="24" height="25" viewBox="0 0 24 25" fill="none" xmlns="http://www.w3.org/2000/svg">
<path d="M20.0833 15.218L21.2854 15.9393C21.5221 16.0814 21.5989 16.3885 21.4569 16.6253C21.4146 16.6957 21.3557 16.7546 21.2854 16.7968L12.5144 22.0593C12.1977 22.2494 11.8021 22.2494 11.4854 22.0593L2.71451 16.7968C2.47772 16.6547 2.40093 16.3476 2.54301 16.1108C2.58523 16.0404 2.64413 15.9815 2.71451 15.9393L3.9166 15.218L11.9999 20.068L20.0833 15.218ZM20.0833 10.518L21.2854 11.2393C21.5221 11.3814 21.5989 11.6885 21.4569 11.9253C21.4146 11.9957 21.3557 12.0546 21.2854 12.0968L11.9999 17.668L2.71451 12.0968C2.47772 11.9547 2.40093 11.6476 2.54301 11.4108C2.58523 11.3404 2.64413 11.2815 2.71451 11.2393L3.9166 10.518L11.9999 15.368L20.0833 10.518ZM12.5144 1.3267L21.2854 6.58926C21.5221 6.73133 21.5989 7.03846 21.4569 7.27525C21.4146 7.34563 21.3557 7.40453 21.2854 7.44675L11.9999 13.018L2.71451 7.44675C2.47772 7.30468 2.40093 6.99755 2.54301 6.76076C2.58523 6.69038 2.64413 6.63149 2.71451 6.58926L11.4854 1.3267C11.8021 1.1367 12.1977 1.1367 12.5144 1.3267ZM11.9999 3.35039L5.88723 7.01801L11.9999 10.6857L18.1126 7.01801L11.9999 3.35039Z" fill="#191B24"/>
</svg>
