<svg width="24" height="24" viewBox="0 0 24 24" fill="none" xmlns="http://www.w3.org/2000/svg">
<path d="M17.6569 14.8356L16.2427 13.4214L17.6569 12.0072C19.219 10.4451 19.219 7.91244 17.6569 6.35034C16.0948 4.78825 13.5621 4.78825 12 6.35034L10.5858 7.76456L9.17163 6.35034L10.5858 4.93613C12.9289 2.59298 16.7279 2.59298 19.0711 4.93613C21.4142 7.27928 21.4142 11.0783 19.0711 13.4214L17.6569 14.8356ZM14.8284 17.6641L13.4142 19.0783C11.0711 21.4214 7.27213 21.4214 4.92899 19.0783C2.58584 16.7351 2.58584 12.9361 4.92899 10.593L6.3432 9.17877L7.75741 10.593L6.3432 12.0072C4.7811 13.5693 4.7811 16.102 6.3432 17.6641C7.9053 19.2261 10.4379 19.2261 12 17.6641L13.4142 16.2498L14.8284 17.6641ZM14.8284 7.76456L16.2427 9.17877L9.17163 16.2498L7.75741 14.8356L14.8284 7.76456Z" fill="#191B24"/>
</svg>
