<svg width="24" height="24" viewBox="0 0 24 24" fill="none" xmlns="http://www.w3.org/2000/svg">
<path d="M9 17.0072C9 17.0072 16 18.0072 19 21.0072H20C20.5523 21.0072 21 20.5595 21 20.0072V13.9442C21.8626 13.7222 22.5 12.9391 22.5 12.0072C22.5 11.0753 21.8626 10.2922 21 10.0702V4.0072C21 3.45492 20.5523 3.0072 20 3.0072H19C16 6.0072 9 7.0072 9 7.0072H5C3.89543 7.0072 3 7.90263 3 9.0072V15.0072C3 16.1118 3.89543 17.0072 5 17.0072H6L7 22.0072H9V17.0072ZM11 8.6684C11.6833 8.5218 12.5275 8.31913 13.4393 8.05093C15.1175 7.55734 17.25 6.77982 19 5.58178V18.4326C17.25 17.2346 15.1175 16.4571 13.4393 15.9635C12.5275 15.6953 11.6833 15.4926 11 15.346V8.6684ZM5 9.0072H9V15.0072H5V9.0072Z" fill="#191B24"/>
</svg>
