<svg width="24" height="24" viewBox="0 0 24 24" fill="none" xmlns="http://www.w3.org/2000/svg">
<path d="M10 7.0072C10 10.8732 13.134 14.0072 17 14.0072C18.9584 14.0072 20.729 13.2029 21.9995 11.9067C22 11.9402 22 11.9737 22 12.0072C22 17.53 17.5228 22.0072 12 22.0072C6.47715 22.0072 2 17.53 2 12.0072C2 6.48435 6.47715 2.0072 12 2.0072C12.0335 2.0072 12.067 2.0072 12.1005 2.00769C10.8043 3.27818 10 5.04877 10 7.0072ZM4 12.0072C4 16.4255 7.58172 20.0072 12 20.0072C15.0583 20.0072 17.7158 18.2911 19.062 15.7693C18.3945 15.9259 17.7035 16.0072 17 16.0072C12.0294 16.0072 8 11.9778 8 7.0072C8 6.30368 8.08133 5.61267 8.2379 4.9452C5.71611 6.29143 4 8.9489 4 12.0072Z" fill="#191B24"/>
</svg>
