<svg width="24" height="24" viewBox="0 0 24 24" fill="none" xmlns="http://www.w3.org/2000/svg">
<path d="M4.5 10.5072C3.675 10.5072 3 11.1822 3 12.0072C3 12.8322 3.675 13.5072 4.5 13.5072C5.325 13.5072 6 12.8322 6 12.0072C6 11.1822 5.325 10.5072 4.5 10.5072ZM19.5 10.5072C18.675 10.5072 18 11.1822 18 12.0072C18 12.8322 18.675 13.5072 19.5 13.5072C20.325 13.5072 21 12.8322 21 12.0072C21 11.1822 20.325 10.5072 19.5 10.5072ZM12 10.5072C11.175 10.5072 10.5 11.1822 10.5 12.0072C10.5 12.8322 11.175 13.5072 12 13.5072C12.825 13.5072 13.5 12.8322 13.5 12.0072C13.5 11.1822 12.825 10.5072 12 10.5072Z" fill="#191B24"/>
</svg>
