<svg width="24" height="24" viewBox="0 0 24 24" fill="none" xmlns="http://www.w3.org/2000/svg">
<path d="M12 3.0072C11.175 3.0072 10.5 3.6822 10.5 4.5072C10.5 5.3322 11.175 6.0072 12 6.0072C12.825 6.0072 13.5 5.3322 13.5 4.5072C13.5 3.6822 12.825 3.0072 12 3.0072ZM12 18.0072C11.175 18.0072 10.5 18.6822 10.5 19.5072C10.5 20.3322 11.175 21.0072 12 21.0072C12.825 21.0072 13.5 20.3322 13.5 19.5072C13.5 18.6822 12.825 18.0072 12 18.0072ZM12 10.5072C11.175 10.5072 10.5 11.1822 10.5 12.0072C10.5 12.8322 11.175 13.5072 12 13.5072C12.825 13.5072 13.5 12.8322 13.5 12.0072C13.5 11.1822 12.825 10.5072 12 10.5072Z" fill="#191B24"/>
</svg>
