<svg width="24" height="25" viewBox="0 0 24 25" fill="none" xmlns="http://www.w3.org/2000/svg">
<path d="M6.1039 5.92193C6.68754 6.39607 6.90648 6.35989 8.00238 6.28678L18.3342 5.66639C18.5533 5.66639 18.3711 5.44778 18.2981 5.41145L16.5822 4.171C16.2534 3.91575 15.8153 3.62343 14.9758 3.69655L4.9715 4.42624C4.60665 4.46242 4.53377 4.64483 4.67909 4.79107L6.1039 5.92193ZM6.72422 8.32973V19.2006C6.72422 19.7848 7.01618 20.0034 7.6733 19.9672L19.028 19.3102C19.6854 19.2741 19.7586 18.8722 19.7586 18.3976V7.59974C19.7586 7.12591 19.5764 6.87037 19.1739 6.90685L7.30815 7.59974C6.87027 7.63654 6.72422 7.85558 6.72422 8.32973ZM17.9335 8.91287C18.0063 9.24154 17.9335 9.56988 17.6043 9.60681L17.0571 9.71582V17.7414C16.5822 17.9967 16.1441 18.1426 15.7791 18.1426C15.1947 18.1426 15.0484 17.9601 14.6107 17.4132L11.0321 11.7952V17.2308L12.1645 17.4863C12.1645 17.4863 12.1645 18.1426 11.2509 18.1426L8.73222 18.2887C8.65905 18.1426 8.73222 17.7781 8.98769 17.7051L9.64494 17.523V10.3362L8.73237 10.2631C8.6592 9.93443 8.84146 9.46058 9.35298 9.4238L12.0549 9.24167L15.7791 14.9327V9.89824L14.8296 9.78925C14.7567 9.38747 15.0484 9.09574 15.4135 9.05956L17.9335 8.91287ZM4.13151 3.44131L14.5376 2.675C15.8155 2.56539 16.1443 2.63881 16.9475 3.22226L20.2692 5.55694C20.8173 5.95841 21 6.06772 21 6.50537V19.3102C21 20.1127 20.7077 20.5873 19.6856 20.6599L7.60101 21.3897C6.83376 21.4263 6.4686 21.3169 6.0668 20.8059L3.6206 17.6321C3.18227 17.0479 3 16.6108 3 16.0995V4.71766C3 4.06139 3.29242 3.51398 4.13151 3.44131Z" fill="#191B24"/>
</svg>
