<svg width="24" height="25" viewBox="0 0 24 25" fill="none" xmlns="http://www.w3.org/2000/svg">
<path d="M11.6465 3.17538C11.8417 2.98011 12.1583 2.98012 12.3535 3.17538L20.8389 11.6607C21.0341 11.856 21.0341 12.1725 20.8389 12.3678L12.3535 20.8531C12.1583 21.0483 11.8417 21.0483 11.6465 20.8531L7.14941 16.356C7.02352 16.2301 7.11214 16.0146 7.29004 16.0142H9.63574L12 18.3785L18.3643 12.0142L12 5.64999L9.63574 8.01424H7.29004C7.11214 8.01391 7.02352 7.79834 7.14941 7.67245L11.6465 3.17538Z" fill="#191B24"/>
<path d="M12 9.76424C13.2426 9.76424 14.25 10.7716 14.25 12.0142C14.25 13.2569 13.2426 14.2642 12 14.2642C11.117 14.2642 10.3547 13.7545 9.98633 13.0142H3.00391V11.0142H9.98633C10.3547 10.2739 11.117 9.76424 12 9.76424Z" fill="#191B24"/>
</svg>
