<svg width="24" height="24" viewBox="0 0 24 24" fill="none" xmlns="http://www.w3.org/2000/svg">
<path d="M16 17.0072V16.0072H13V13.0072H16V15.0072H18V17.0072H17V19.0072H15V21.0072H13V18.0072H15V17.0072H16ZM21 21.0072H17V19.0072H19V17.0072H21V21.0072ZM3 3.0072H11V11.0072H3V3.0072ZM5 5.0072V9.0072H9V5.0072H5ZM13 3.0072H21V11.0072H13V3.0072ZM15 5.0072V9.0072H19V5.0072H15ZM3 13.0072H11V21.0072H3V13.0072ZM5 15.0072V19.0072H9V15.0072H5ZM18 13.0072H21V15.0072H18V13.0072ZM6 6.0072H8V8.0072H6V6.0072ZM6 16.0072H8V18.0072H6V16.0072ZM16 6.0072H18V8.0072H16V6.0072Z" fill="#191B24"/>
</svg>
