<svg width="24" height="24" viewBox="0 0 24 24" fill="none" xmlns="http://www.w3.org/2000/svg">
<path d="M12 22.0072C6.47715 22.0072 2 17.53 2 12.0072C2 6.48435 6.47715 2.0072 12 2.0072C17.5228 2.0072 22 6.48435 22 12.0072C22 17.53 17.5228 22.0072 12 22.0072ZM12 20.0072C16.4183 20.0072 20 16.4255 20 12.0072C20 7.58892 16.4183 4.0072 12 4.0072C7.58172 4.0072 4 7.58892 4 12.0072C4 16.4255 7.58172 20.0072 12 20.0072ZM11 15.0072H13V17.0072H11V15.0072ZM13 13.3623V14.0072H11V12.5072C11 11.9549 11.4477 11.5072 12 11.5072C12.8284 11.5072 13.5 10.8356 13.5 10.0072C13.5 9.17877 12.8284 8.5072 12 8.5072C11.2723 8.5072 10.6656 9.02543 10.5288 9.71297L8.56731 9.32066C8.88637 7.71639 10.302 6.5072 12 6.5072C13.933 6.5072 15.5 8.0742 15.5 10.0072C15.5 11.5927 14.4457 12.932 13 13.3623Z" fill="#191B24"/>
</svg>
