<svg width="24" height="24" viewBox="0 0 24 24" fill="none" xmlns="http://www.w3.org/2000/svg">
<path d="M5 21H3V19H5V21Z" fill="#191B24"/>
<path d="M5 17H3V15H5V17Z" fill="#191B24"/>
<path d="M5 13H3V11H5V13Z" fill="#191B24"/>
<path d="M5 9H3V7H5V9Z" fill="#191B24"/>
<path d="M5 5H3V3H5V5Z" fill="#191B24"/>
<path d="M9 5H7V3H9V5Z" fill="#191B24"/>
<path d="M21 21H19V19H21V21Z" fill="#191B24"/>
<path d="M21 17H19V15H21V17Z" fill="#191B24"/>
<path d="M9 21H7V19H9V21Z" fill="#191B24"/>
<path d="M13 21H11V19H13V21Z" fill="#191B24"/>
<path d="M17 21H15V19H17V21Z" fill="#191B24"/>
<path d="M21 13H19V5H11V3H21V13Z" fill="#191B24"/>
</svg>
