<svg width="24" height="24" viewBox="0 0 24 24" fill="none" xmlns="http://www.w3.org/2000/svg">
<path d="M18.5374 19.5746C16.7844 21.0903 14.4993 22.0072 12 22.0072C6.47715 22.0072 2 17.53 2 12.0072C2 6.48435 6.47715 2.0072 12 2.0072C17.5228 2.0072 22 6.48435 22 12.0072C22 14.1433 21.3302 16.123 20.1892 17.7478L17 12.0072H20C20 7.58892 16.4183 4.0072 12 4.0072C7.58172 4.0072 4 7.58892 4 12.0072C4 16.4255 7.58172 20.0072 12 20.0072C14.1502 20.0072 16.1022 19.1589 17.5398 17.7788L18.5374 19.5746Z" fill="#191B24"/>
</svg>
