<svg width="24" height="24" viewBox="0 0 24 24" fill="none" xmlns="http://www.w3.org/2000/svg">
<g clip-path="url(#clip0_10682_88918)">
<path d="M13.5 2.0072C13.5 2.45145 13.3069 2.85059 13 3.12525V5.0072H18C19.6569 5.0072 21 6.35035 21 8.0072V18.0072C21 19.6641 19.6569 21.0072 18 21.0072H6C4.34315 21.0072 3 19.6641 3 18.0072V8.0072C3 6.35035 4.34315 5.0072 6 5.0072H11V3.12525C10.6931 2.85059 10.5 2.45145 10.5 2.0072C10.5 1.17877 11.1716 0.507202 12 0.507202C12.8284 0.507202 13.5 1.17877 13.5 2.0072ZM6 7.0072C5.44772 7.0072 5 7.45492 5 8.0072V18.0072C5 18.5595 5.44772 19.0072 6 19.0072H18C18.5523 19.0072 19 18.5595 19 18.0072V8.0072C19 7.45492 18.5523 7.0072 18 7.0072H13H11H6ZM2 10.0072H0V16.0072H2V10.0072ZM22 10.0072H24V16.0072H22V10.0072ZM9 14.5072C9.82843 14.5072 10.5 13.8356 10.5 13.0072C10.5 12.1788 9.82843 11.5072 9 11.5072C8.17157 11.5072 7.5 12.1788 7.5 13.0072C7.5 13.8356 8.17157 14.5072 9 14.5072ZM15 14.5072C15.8284 14.5072 16.5 13.8356 16.5 13.0072C16.5 12.1788 15.8284 11.5072 15 11.5072C14.1716 11.5072 13.5 12.1788 13.5 13.0072C13.5 13.8356 14.1716 14.5072 15 14.5072Z" fill="#191B24"/>
</g>
<defs>
<clipPath id="clip0_10682_88918">
<rect width="24" height="24" fill="white" transform="translate(0 0.00720215)"/>
</clipPath>
</defs>
</svg>
