<svg width="24" height="24" viewBox="0 0 24 24" fill="none" xmlns="http://www.w3.org/2000/svg">
<path fill-rule="evenodd" clip-rule="evenodd" d="M6.99805 1C7.8432 1.00005 8.65644 1.31374 9.28125 1.87695L9.40332 1.99316L22.0039 14.5938L22.1191 14.7148C22.382 15.0039 22.594 15.3366 22.7441 15.6982C22.9156 16.1114 23.0039 16.5546 23.0039 17.002C23.0039 17.4493 22.9157 17.8925 22.7441 18.3057C22.5727 18.7185 22.3204 19.0926 22.0039 19.4082L22.0049 19.4092L19.4053 22.0088C19.0896 22.3252 18.7145 22.5767 18.3018 22.748C17.8886 22.9195 17.4454 23.0078 16.998 23.0078C16.5508 23.0078 16.1074 22.9195 15.6943 22.748C15.2817 22.5767 14.9064 22.3251 14.5908 22.0088L1.98926 9.40723C1.35345 8.76827 0.996146 7.90335 0.996094 7.00195C0.996094 6.1005 1.35343 5.23568 1.98926 4.59668L4.59277 1.99316C5.23173 1.35732 6.09663 1.00006 6.99805 1ZM6.99805 3C6.62607 3.00006 6.26793 3.14625 6.00391 3.4082L6.00488 3.40918L3.40527 6.00879L3.4043 6.00781C3.14236 6.27188 2.99609 6.62995 2.99609 7.00195C2.99615 7.37398 3.14327 7.73108 3.40527 7.99512L16.0059 20.5957C16.1358 20.7261 16.2909 20.8297 16.4609 20.9004C16.631 20.971 16.8139 21.0078 16.998 21.0078C17.1822 21.0078 17.3651 20.971 17.5352 20.9004C17.7051 20.8298 17.8593 20.726 17.9893 20.5957L17.9912 20.5947L20.5908 17.9951L20.5918 17.9932C20.7222 17.8632 20.8258 17.709 20.8965 17.5391C20.9671 17.369 21.0039 17.1861 21.0039 17.002C21.0039 16.8177 20.9671 16.635 20.8965 16.4648C20.8258 16.2947 20.7223 16.1398 20.5918 16.0098L19.498 14.916L18.2051 16.209C17.8146 16.5993 17.1815 16.5992 16.791 16.209C16.4007 15.8185 16.4007 15.1854 16.791 14.7949L18.084 13.502L16.498 11.916L15.2051 13.209C14.8146 13.5993 14.1815 13.5992 13.791 13.209C13.4007 12.8185 13.4007 12.1854 13.791 11.7949L15.084 10.502L13.498 8.91602L12.2051 10.209C11.8146 10.5993 11.1815 10.5992 10.791 10.209C10.4007 9.8185 10.4007 9.18542 10.791 8.79492L12.084 7.50195L10.498 5.91602L9.20508 7.20898C8.81461 7.59929 8.18151 7.59924 7.79102 7.20898C7.40066 6.8185 7.40068 6.18542 7.79102 5.79492L9.08398 4.50195L7.99219 3.41016C7.72805 3.14754 7.37053 3.00005 6.99805 3Z" fill="#1B1C21"/>
</svg>
