<svg width="24" height="24" viewBox="0 0 24 24" fill="none" xmlns="http://www.w3.org/2000/svg">
<path d="M18.031 16.624L22.3137 20.9067L20.8995 22.3209L16.6168 18.0382C15.0769 19.2702 13.124 20.0072 11 20.0072C6.032 20.0072 2 15.9752 2 11.0072C2 6.0392 6.032 2.0072 11 2.0072C15.968 2.0072 20 6.0392 20 11.0072C20 13.1312 19.263 15.0841 18.031 16.624ZM16.0247 15.882C17.2475 14.6218 18 12.9028 18 11.0072C18 7.1397 14.8675 4.0072 11 4.0072C7.1325 4.0072 4 7.1397 4 11.0072C4 14.8747 7.1325 18.0072 11 18.0072C12.8956 18.0072 14.6146 17.2547 15.8748 16.0319L16.0247 15.882Z" fill="#191B24"/>
</svg>
