<svg width="24" height="25" viewBox="0 0 24 25" fill="none" xmlns="http://www.w3.org/2000/svg">
<path d="M12.7716 2.30039C12.4679 1.79432 12.3161 1.54129 12.1021 1.49656C12.0346 1.48246 11.965 1.48246 11.8975 1.49657C11.6835 1.5413 11.5317 1.79434 11.2281 2.30041L6.81779 9.65112C6.49844 10.1834 6.33876 10.4495 6.40602 10.6639C6.42717 10.7313 6.46236 10.7934 6.50927 10.8462C6.65845 11.0142 6.96881 11.0142 7.58954 11.0142H16.4104C17.0311 11.0142 17.3415 11.0142 17.4907 10.8462C17.5376 10.7934 17.5728 10.7313 17.594 10.6639C17.6612 10.4495 17.5015 10.1834 17.1821 9.6511L12.7716 2.30039ZM11.9998 4.90146L14.4676 9.01416H9.53232L11.9998 4.90146ZM6.75 20.0142C5.23122 20.0142 4 18.783 4 17.2642C4 15.7454 5.23122 14.5142 6.75 14.5142C8.26878 14.5142 9.5 15.7454 9.5 17.2642C9.5 18.783 8.26878 20.0142 6.75 20.0142ZM6.75 22.0142C9.37335 22.0142 11.5 19.8876 11.5 17.2642C11.5 14.6408 9.37335 12.5142 6.75 12.5142C4.12665 12.5142 2 14.6408 2 17.2642C2 19.8876 4.12665 22.0142 6.75 22.0142ZM15 15.5142V19.5142H19V15.5142H15ZM13.9 21.5142C13.525 21.5142 13.3375 21.5142 13.2061 21.4187C13.1637 21.3878 13.1263 21.3505 13.0955 21.3081C13 21.1766 13 20.9891 13 20.6142V14.4142C13 14.0392 13 13.8517 13.0955 13.7203C13.1263 13.6778 13.1637 13.6405 13.2061 13.6097C13.3375 13.5142 13.525 13.5142 13.9 13.5142H20.1C20.475 13.5142 20.6625 13.5142 20.7939 13.6097C20.8363 13.6405 20.8737 13.6778 20.9045 13.7203C21 13.8517 21 14.0392 21 14.4142V20.6142C21 20.9891 21 21.1766 20.9045 21.3081C20.8737 21.3505 20.8363 21.3878 20.7939 21.4187C20.6625 21.5142 20.475 21.5142 20.1 21.5142H13.9Z" fill="#191B24"/>
</svg>
