<svg width="24" height="24" viewBox="0 0 24 24" fill="none" xmlns="http://www.w3.org/2000/svg">
<path d="M5 2.0072C3.34315 2.0072 2 3.35035 2 5.0072V19.0072C2 20.6641 3.34315 22.0072 5 22.0072H19C20.6569 22.0072 22 20.6641 22 19.0072V5.0072C22 3.35035 20.6569 2.0072 19 2.0072H5ZM4 5.0072C4 4.45492 4.44772 4.0072 5 4.0072H19C19.5523 4.0072 20 4.45492 20 5.0072V19.0072C20 19.5595 19.5523 20.0072 19 20.0072H5C4.44772 20.0072 4 19.5595 4 19.0072V5.0072ZM9.72318 18.0072L16.5803 6.0072H14.2768L7.41968 18.0072H9.72318Z" fill="#191B24"/>
</svg>
