<svg width="24" height="24" viewBox="0 0 24 24" fill="none" xmlns="http://www.w3.org/2000/svg">
<path fill-rule="evenodd" clip-rule="evenodd" d="M18.3926 3.01306C19.2609 3.03097 19.7815 3.10257 20.1758 3.38904C20.3455 3.51237 20.4948 3.66169 20.6182 3.83142C21.0001 4.35711 21 5.10718 21 6.60681V14.0072C21 14.2724 20.8945 14.5267 20.707 14.7142L14.707 20.7142C14.5429 20.8783 14.3276 20.9796 14.0986 21.0023L14 21.0072H6.59961L5.60742 21.0013C4.81158 20.9849 4.30788 20.9235 3.92578 20.6927L3.82422 20.6254C3.69691 20.5329 3.58146 20.4254 3.47949 20.306L3.38184 20.183C3.09537 19.7887 3.02377 19.2681 3.00586 18.3998L3 17.4076V6.60681C3 5.20104 2.99984 4.454 3.31445 3.93298L3.38184 3.83142C3.47434 3.70412 3.5818 3.58867 3.70117 3.48669L3.82422 3.38904C4.21851 3.10257 4.73912 3.03097 5.60742 3.01306L6.59961 3.0072H17.4004L18.3926 3.01306ZM6.59961 5.0072C5.8055 5.0072 5.37039 5.00999 5.0625 5.04333C5.05443 5.04421 5.04653 5.04539 5.03906 5.04626C5.03819 5.05373 5.03701 5.06163 5.03613 5.0697C5.00279 5.37759 5 5.81271 5 6.60681V17.4076C5 18.2017 5.00279 18.6368 5.03613 18.9447C5.03697 18.9524 5.03822 18.96 5.03906 18.9672C5.04656 18.968 5.05439 18.9702 5.0625 18.9711C5.37039 19.0044 5.8055 19.0072 6.59961 19.0072H12V13.5072C12 12.6788 12.6716 12.0072 13.5 12.0072H19V6.60681C19 5.81271 18.9972 5.37759 18.9639 5.0697C18.963 5.06159 18.9608 5.05377 18.96 5.04626C18.9528 5.04543 18.9452 5.04417 18.9375 5.04333C18.6296 5.00999 18.1945 5.0072 17.4004 5.0072H6.59961ZM14 14.0072V18.5931L18.5859 14.0072H14Z" fill="#191B24"/>
</svg>
