<svg width="24" height="25" viewBox="0 0 24 25" fill="none" xmlns="http://www.w3.org/2000/svg">
<path d="M7.26316 11.5405C4.90868 11.5405 3 9.63179 3 7.27732C3 4.92284 4.90868 3.01416 7.26316 3.01416C9.61763 3.01416 11.5263 4.92284 11.5263 7.27732C11.5263 9.63179 9.61763 11.5405 7.26316 11.5405ZM7.26316 21.0142C4.90868 21.0142 3 19.1055 3 16.751C3 14.3965 4.90868 12.4878 7.26316 12.4878C9.61763 12.4878 11.5263 14.3965 11.5263 16.751C11.5263 19.1055 9.61763 21.0142 7.26316 21.0142ZM16.7368 11.5405C14.3823 11.5405 12.4737 9.63179 12.4737 7.27732C12.4737 4.92284 14.3823 3.01416 16.7368 3.01416C19.0913 3.01416 21 4.92284 21 7.27732C21 9.63179 19.0913 11.5405 16.7368 11.5405ZM16.7368 21.0142C14.3823 21.0142 12.4737 19.1055 12.4737 16.751C12.4737 14.3965 14.3823 12.4878 16.7368 12.4878C19.0913 12.4878 21 14.3965 21 16.751C21 19.1055 19.0913 21.0142 16.7368 21.0142ZM7.26316 9.64574C8.5712 9.64574 9.63158 8.58536 9.63158 7.27732C9.63158 5.96928 8.5712 4.9089 7.26316 4.9089C5.95512 4.9089 4.89474 5.96928 4.89474 7.27732C4.89474 8.58536 5.95512 9.64574 7.26316 9.64574ZM7.26316 19.1194C8.5712 19.1194 9.63158 18.059 9.63158 16.751C9.63158 15.443 8.5712 14.3826 7.26316 14.3826C5.95512 14.3826 4.89474 15.443 4.89474 16.751C4.89474 18.059 5.95512 19.1194 7.26316 19.1194ZM16.7368 9.64574C18.0449 9.64574 19.1053 8.58536 19.1053 7.27732C19.1053 5.96928 18.0449 4.9089 16.7368 4.9089C15.4288 4.9089 14.3684 5.96928 14.3684 7.27732C14.3684 8.58536 15.4288 9.64574 16.7368 9.64574ZM16.7368 19.1194C18.0449 19.1194 19.1053 18.059 19.1053 16.751C19.1053 15.443 18.0449 14.3826 16.7368 14.3826C15.4288 14.3826 14.3684 15.443 14.3684 16.751C14.3684 18.059 15.4288 19.1194 16.7368 19.1194Z" fill="#191B24"/>
</svg>
