<svg width="24" height="24" viewBox="0 0 24 24" fill="none" xmlns="http://www.w3.org/2000/svg">
<path d="M12 18.0072C8.68629 18.0072 6 15.3209 6 12.0072C6 8.69349 8.68629 6.0072 12 6.0072C15.3137 6.0072 18 8.69349 18 12.0072C18 15.3209 15.3137 18.0072 12 18.0072ZM12 16.0072C14.2091 16.0072 16 14.2163 16 12.0072C16 9.79806 14.2091 8.0072 12 8.0072C9.79086 8.0072 8 9.79806 8 12.0072C8 14.2163 9.79086 16.0072 12 16.0072ZM11 1.0072H13V4.0072H11V1.0072ZM11 20.0072H13V23.0072H11V20.0072ZM3.51472 4.93613L4.92893 3.52192L7.05025 5.64324L5.63604 7.05745L3.51472 4.93613ZM16.9497 18.3712L18.364 16.9569L20.4853 19.0783L19.0711 20.4925L16.9497 18.3712ZM19.0711 3.52192L20.4853 4.93613L18.364 7.05745L16.9497 5.64324L19.0711 3.52192ZM5.63604 16.9569L7.05025 18.3712L4.92893 20.4925L3.51472 19.0783L5.63604 16.9569ZM23 11.0072V13.0072H20V11.0072H23ZM4 11.0072V13.0072H1V11.0072H4Z" fill="#191B24"/>
</svg>
