<svg width="24" height="24" viewBox="0 0 24 24" fill="none" xmlns="http://www.w3.org/2000/svg">
<path d="M4 22.0072C4 17.5889 7.58172 14.0072 12 14.0072C16.4183 14.0072 20 17.5889 20 22.0072H18C18 18.6935 15.3137 16.0072 12 16.0072C8.68629 16.0072 6 18.6935 6 22.0072H4ZM12 13.0072C8.685 13.0072 6 10.3222 6 7.0072C6 3.6922 8.685 1.0072 12 1.0072C15.315 1.0072 18 3.6922 18 7.0072C18 10.3222 15.315 13.0072 12 13.0072ZM12 11.0072C14.21 11.0072 16 9.2172 16 7.0072C16 4.7972 14.21 3.0072 12 3.0072C9.79 3.0072 8 4.7972 8 7.0072C8 9.2172 9.79 11.0072 12 11.0072Z" fill="#191B24"/>
</svg>
