<svg width="24" height="25" viewBox="0 0 24 25" fill="none" xmlns="http://www.w3.org/2000/svg">
<path d="M13.5 13.5143H10.5V10.5143H13.5V13.5143Z" fill="#191B24"/>
<path fill-rule="evenodd" clip-rule="evenodd" d="M11.749 2.15884C11.904 2.06912 12.096 2.06912 12.251 2.15884L20.3867 6.86978C20.5411 6.95916 20.6367 7.12401 20.6367 7.30239V16.7262C20.6366 16.9045 20.541 17.0695 20.3867 17.1588L12.251 21.8688C12.096 21.9585 11.904 21.9585 11.749 21.8688L3.61328 17.1588C3.45895 17.0695 3.36338 16.9045 3.36328 16.7262V7.30239C3.36332 7.12401 3.4589 6.95916 3.61328 6.86978L11.749 2.15884ZM5.18164 8.06216V15.9655L12 19.9137L18.8184 15.9655V8.06216L12 4.11489L5.18164 8.06216Z" fill="#191B24"/>
</svg>
