<svg width="24" height="25" viewBox="0 0 24 25" fill="none" xmlns="http://www.w3.org/2000/svg">
<path d="M7.82929 20.0142C7.41746 21.1794 6.30622 22.0142 5 22.0142C3.34315 22.0142 2 20.6711 2 19.0142C2 17.708 2.83481 16.5967 4 16.1849V7.84345C2.83481 7.43162 2 6.32038 2 5.01416C2 3.35731 3.34315 2.01416 5 2.01416C6.30622 2.01416 7.41746 2.84897 7.82929 4.01416H16.1707C16.5825 2.84897 17.6938 2.01416 19 2.01416C20.6569 2.01416 22 3.35731 22 5.01416C22 6.32038 21.1652 7.43162 20 7.84345V16.1849C21.1652 16.5967 22 17.708 22 19.0142C22 20.6711 20.6569 22.0142 19 22.0142C17.6938 22.0142 16.5825 21.1794 16.1707 20.0142H7.82929ZM7.82929 18.0142H16.1707C16.472 17.1618 17.1476 16.4862 18 16.1849V7.84345C17.1476 7.54217 16.472 6.86657 16.1707 6.01416H7.82929C7.52801 6.86657 6.85241 7.54217 6 7.84345V16.1849C6.85241 16.4862 7.52801 17.1618 7.82929 18.0142ZM5 6.01416C5.55228 6.01416 6 5.56644 6 5.01416C6 4.46188 5.55228 4.01416 5 4.01416C4.44772 4.01416 4 4.46188 4 5.01416C4 5.56644 4.44772 6.01416 5 6.01416ZM19 6.01416C19.5523 6.01416 20 5.56644 20 5.01416C20 4.46188 19.5523 4.01416 19 4.01416C18.4477 4.01416 18 4.46188 18 5.01416C18 5.56644 18.4477 6.01416 19 6.01416ZM19 20.0142C19.5523 20.0142 20 19.5665 20 19.0142C20 18.4619 19.5523 18.0142 19 18.0142C18.4477 18.0142 18 18.4619 18 19.0142C18 19.5665 18.4477 20.0142 19 20.0142ZM5 20.0142C5.55228 20.0142 6 19.5665 6 19.0142C6 18.4619 5.55228 18.0142 5 18.0142C4.44772 18.0142 4 18.4619 4 19.0142C4 19.5665 4.44772 20.0142 5 20.0142Z" fill="#191B24"/>
</svg>
