<svg width="24" height="24" viewBox="0 0 24 24" fill="none" xmlns="http://www.w3.org/2000/svg">
<path d="M12.2439 4.00769C12.778 4.01063 14.1143 4.02355 15.5341 4.08042L16.0375 4.10237C17.467 4.17005 18.8953 4.28567 19.6037 4.48319C20.5486 4.74864 21.2913 5.52319 21.5423 6.50501C21.942 8.0641 21.992 11.1071 21.9982 11.8435L21.9991 11.9961V12.0068C21.9991 12.0068 21.9991 12.0105 21.9991 12.0176L21.9982 12.1702C21.992 12.9066 21.942 15.9496 21.5423 17.5087C21.2878 18.4941 20.5451 19.2687 19.6037 19.5305C18.8953 19.728 17.467 19.8436 16.0375 19.9113L15.5341 19.9332C14.1143 19.9901 12.778 20.003 12.2439 20.006L12.0095 20.0068H11.9991C11.9991 20.0068 11.9956 20.0068 11.9887 20.0068L11.7545 20.006C10.6241 19.9998 5.89772 19.9487 4.39451 19.5305C3.4496 19.265 2.70692 18.4905 2.45587 17.5087C2.0562 15.9496 2.00624 12.9066 2 12.1702V11.8435C2.00624 11.1071 2.0562 8.0641 2.45587 6.50501C2.7104 5.51955 3.45308 4.74501 4.39451 4.48319C5.89772 4.06492 10.6241 4.01391 11.7545 4.00769H12.2439ZM9.99911 8.50683V15.5068L15.9991 12.0068L9.99911 8.50683Z" fill="#191B24"/>
</svg>
